<?xml version="1.0" encoding="UTF-8" standalone="no"?>
<svg id="svg2" xmlns:rdf="http://www.w3.org/1999/02/22-rdf-syntax-ns#" xmlns="http://www.w3.org/2000/svg" xml:space="preserve" height="76" viewBox="0 0 200 76" width="200" version="1.1" xmlns:cc="http://creativecommons.org/ns#" xmlns:dc="http://purl.org/dc/elements/1.1/"><metadata id="metadata8"><rdf:RDF><cc:Work rdf:about=""><dc:format>image/svg+xml</dc:format><dc:type rdf:resource="http://purl.org/dc/dcmitype/StillImage"/><dc:title/></cc:Work></rdf:RDF></metadata><defs id="defs6"><clipPath id="clipPath18" clipPathUnits="userSpaceOnUse"><path id="path20" d="m0 546.71v-546.71h1440v546.71h-1440z"/></clipPath></defs><g id="g10" transform="matrix(1.25,0,0,-1.25,0,76)"><g id="g12" transform="scale(.11111 .11121)"><g id="g14"><g id="g16" clip-path="url(#clipPath18)"><path id="path22" d="m28.219 324h77.441v26.125h-77.441v71.734h90.351v26.114h-118.57v-218.52h28.219v94.551" fill="#672259"/><path id="path24" d="m207.26 365.42c30.89 0 55.086-24.582 55.086-55.981 0-32.402-24.196-57.769-55.086-57.769-30.879 0-55.074 25.367-55.074 57.769 0 31.399 24.195 55.981 55.074 55.981zm0-139.57c46.883 0 83.605 36.726 83.605 83.589 0 46.039-36.722 82.114-83.605 82.114-46.864 0-83.594-36.075-83.594-82.114 0-46.863 36.73-83.589 83.594-83.589" fill="#672259"/><path id="path26" d="m487.42 366.93c17.387 0 36.305-10.274 38.926-38.731h-86.309c5.449 24.016 23.27 38.731 47.383 38.731zm5.109-141.08c35.024 0 57.493 21.152 58.426 22.058l2.156 2.07-13.304 22.286-3.41-3.379c-0.165-0.176-17.629-17.215-43.27-17.215-25.723 0-52.055 16.199-54.602 52.223h115.38l0.297 3.429c0.02 0.293 0.61 7.102 0.61 10.828 0 36.536-20.653 73.403-66.786 73.403-46.035 0-78.195-34.145-78.195-83.008 0-47.922 34.781-82.695 82.699-82.695" fill="#672259"/><path id="path28" d="m632.41 251.67c-26.117 0-42.113 16.922-42.265 17.098l-3.055 3.293-15.641-20.723 2-2.297c0.84-0.945 20.789-23.191 58.649-23.191 32.109 0 55.39 19.375 55.39 46.074 0 29.976-27.246 40.613-49.16 49.16-17.265 6.746-32.179 12.559-32.179 24.977 0 18.246 20.101 19.667 26.261 19.667 22.832 0 34.961-12.5 35.078-12.617l3.418-3.648 13.262 22.254-1.836 2.07c-0.625 0.715-16.199 17.766-49.316 17.766-32.614 0-55.383-18.711-55.383-45.492 0-29.61 27.215-40.399 49.094-49.043 17.304-6.864 32.246-12.774 32.246-25.094 0-14.953-14.317-20.254-26.563-20.254" fill="#672259"/><path id="path30" d="m888.03 366.93c17.383 0 36.289-10.274 38.926-38.731h-86.309c5.45 24.016 23.274 38.731 47.383 38.731zm5.117-141.08c35.02 0 57.481 21.152 58.418 22.058l2.168 2.07-13.3 22.286-3.418-3.379c-0.176-0.176-17.637-17.215-43.282-17.215-25.722 0-52.05 16.199-54.609 52.223h115.39l0.293 3.429c0.019 0.293 0.605 7.102 0.605 10.828 0 36.536-20.644 73.403-66.777 73.403-46.043 0-78.184-34.145-78.184-83.008 0-47.922 34.766-82.695 82.695-82.695" fill="#672259"/><path id="path32" d="m1140.8 251.67c-26.12 0-42.11 16.922-42.29 17.098l-3.05 3.293-15.64-20.723 2.01-2.297c0.82-0.945 20.76-23.191 58.65-23.191 32.09 0 55.39 19.375 55.39 46.074 0 29.976-27.26 40.613-49.16 49.16-17.28 6.746-32.18 12.559-32.18 24.977 0 18.246 20.09 19.667 26.27 19.667 22.83 0 34.96-12.5 35.07-12.617l3.4-3.648 13.26 22.254-1.81 2.07c-0.65 0.715-16.21 17.766-49.34 17.766-32.6 0-55.37-18.711-55.37-45.492 0-29.61 27.21-40.399 49.1-49.043 17.29-6.864 32.23-12.774 32.23-25.094 0-14.953-14.3-20.254-26.54-20.254" fill="#672259"/><path id="path34" d="m1273.6 488.41c-4.55 2.629-9.47 3.946-14.65 3.946-10.98 0-23.01-5.801-35.78-17.282l-3.65-3.293 4.84 0.93c15.18 2.93 26.58 0.566 36.06-7.519 14.18-12.016 24.51-39.629 29.78-79.868 1.92-14.605 2.33-27.129 2.54-33.867l0.04-1.543c0.02-1.07 0.08-1.844 0.14-2.613l0.05-0.996c0.06-0.942 0.81-1.645 1.74-1.645 0.9 0 1.64 0.664 1.76 1.582 0.02 0.754 0.16 2.395 0.31 4.328l0.37 5.157c0.3 3.797 0.51 8.347 0.75 13.132l0.13 2.512c1.19 23.406 2.99 101.11-24.43 117.04" fill="#82d4c5"/><path id="path36" d="m1328.9 423.37c0.8 0 1.49 0.547 1.7 1.406 14.06 56.211 31.49 92.2 47.79 98.684 7.29 2.898 12.84 2.434 19.52-1.609l4.37-2.657-2.46 4.493c-3.96 7.207-17.32 23.027-31.19 23.027-3.85 0-7.46-1.191-10.78-3.555-14.14-10.117-24.83-46.008-29.28-98.508-0.12-1.511-0.23-2.824-0.35-4.16-0.16-1.718-0.31-3.484-0.47-5.73-0.22-2.988-0.53-7.231-0.57-9.477-0.04-0.508 0.12-0.996 0.45-1.375 0.33-0.351 0.8-0.539 1.27-0.539" fill="#82d4c5"/><path id="path38" d="m1437.1 424.72c-11.12 12.801-23.6 24.746-39.4 25.215-30.41 0.964-54.32-30.852-71.31-94.438-14.98-56.148-20.51-107.14-21.83-121.41-0.32-2.977-0.49-5.781-0.65-8.066l-0.15-2.024c-0.06-0.508 0.09-0.984 0.39-1.347 0.33-0.36 0.8-0.567 1.29-0.567 0.8 0 1.52 0.539 1.75 1.406 0.41 1.926 1 5.102 1.53 8.149l0.41 2.262c8.28 46.222 21.64 92.316 36.7 126.45 18.53 42.234 43.65 64.558 72.61 64.558 5.59 0 11.39-0.808 17.25-2.414l4.35-1.172-2.94 3.403" fill="#82d4c5"/><path id="path40" d="m792.19 255.61-4.687-1.035c-0.039 0-2.43-0.508-6.113-0.508-11.25 0-30.157 4.707-30.157 36.164v71.297h37.813v24.614h-37.813v43.511h-27.617v-43.511h-20.117v-24.614h19.805v-73.394c0-54.043 39.375-59.883 56.289-59.883 5.683 0 9.238 0.641 9.375 0.66l3.047 0.551s5.312 1.004 8.339 2c2.247 0.742 5.129 1.863 5.129 1.863l-13.293 22.285" fill="#672259"/><path id="path42" d="m1076.1 382.55s-0.59 0.293-2.17 1.14c-3.5 1.868-11.25 4.129-11.25 4.129l-2.73 0.625c-0.18 0.039-4.38 0.996-8.95 0.996-18.3 0-33.93-9.586-43.98-26.343v24.84h-27.622v-158.48h27.932v67.395c0 10.23 1.35 19.734 4.04 28.34 6.66 22.417 22.07 36.343 40.24 36.343 3.51 0 6.85-0.547 6.87-0.547l4.38-0.652 13.24 22.219" fill="#672259"/><path id="path44" d="m410.72 382.52s-0.582 0.3-2.164 1.14c-3.485 1.875-11.246 4.133-11.246 4.133l-2.739 0.637c-0.176 0.039-4.371 0.996-8.945 0.996-18.301 0-33.914-9.59-43.981-26.34v24.836h-27.609v-158.49h27.918v67.39c0 10.215 1.363 19.746 4.043 28.34 6.66 22.414 22.074 36.34 40.23 36.34 3.512 0 6.852-0.547 6.883-0.547l4.371-0.644 13.239 22.207" fill="#672259"/><path id="path46" d="m0 160.93h83.273v-13.957h-67.746v-59.414h58.066v-13.953h-58.066v-70.902l-15.527 0.0021v158.23" fill="#672259"/><path id="path48" d="m105.27 115.92h15.301v-113.21h-15.301v113.21zm-0.453 45.012h15.977v-19.133h-15.977v19.133" fill="#672259"/><path id="path50" d="m152.23 115.92h15.079v-16.887c0-4.9493-0.45-9.004-0.45-9.004h0.45c4.054 10.356 18.457 28.586 45.234 28.586 27.91 0 37.816-15.976 37.816-43.886v-72.023h-15.304v67.973c0 17.781-2.7 33.535-24.532 33.535-19.355 0-36.011-13.281-41.187-31.965-1.352-4.7266-1.801-9.9023-1.801-15.305v-54.238h-15.305v113.21" fill="#672259"/><path id="path52" d="m313.29 13.059c21.609 0 34.66 22.508 34.66 42.086v4.9532h-6.523c-17.781 0-53.344-0.6719-53.344-25.656 0-10.586 8.328-21.383 25.207-21.383zm28.359 59.644h6.301v2.9219c0 21.836-11.929 29.258-28.129 29.258-18.683 0-31.965-10.801-31.965-10.801l-7.203 11.699s14.86 12.832 40.289 12.832c27.235 0 42.317-15.078 42.317-43.437v-72.473h-14.629v12.387c0 5.625 0.449 9.4493 0.449 9.4493h-0.449s-9.453-24.539-37.813-24.539c-18.906 0-38.488 11.035-38.488 33.535 0 38.262 49.742 39.168 69.32 39.168" fill="#672259"/><path id="path54" d="m394.14 115.92h15.078v-16.887c0-4.9493-0.45-9.004-0.45-9.004h0.45c4.054 10.356 18.457 28.586 45.242 28.586 27.902 0 37.808-15.976 37.808-43.886v-72.023h-15.304v67.973c0 17.781-2.699 33.535-24.531 33.535-19.356 0-36.012-13.281-41.188-31.965-1.352-4.7266-1.801-9.9023-1.801-15.305v-54.238h-15.304v113.21" fill="#672259"/><path id="path56" d="m575.57 118.61c27.688 0 41.41-16.203 41.41-16.203l-7.875-11.48s-12.601 13.726-33.085 13.726c-24.754 0-44.11-18.457-44.11-45.457 0-26.562 19.578-45.469 44.567-45.469 22.953 0 36.234 15.988 36.234 15.988l6.977-11.938c0 0.001-15.31-17.78-44.12-17.78-33.535 0-59.422 24.082-59.422 59.199 0 34.883 26.114 59.414 59.422 59.414" fill="#672259"/><path id="path58" d="m640.51 115.92h15.312v-113.21h-15.312v113.21zm-0.449 45.012h15.976v-19.133h-15.976v19.133" fill="#672259"/><path id="path60" d="m719.43 13.059c21.601 0 34.656 22.508 34.656 42.086v4.9532h-6.523c-17.782 0-53.34-0.6719-53.34-25.656 0-10.586 8.32-21.383 25.207-21.383zm28.359 59.644h6.297v2.9219c0 21.836-11.922 29.258-28.133 29.258-18.683 0-31.965-10.801-31.965-10.801l-7.195 11.699s14.852 12.832 40.281 12.832c27.239 0 42.317-15.078 42.317-43.437v-72.473h-14.629v12.387c0 5.625 0.449 9.4493 0.449 9.4493h-0.449s-9.453-24.539-37.813-24.539c-18.898 0-38.488 11.035-38.488 33.535 0 38.262 49.746 39.168 69.328 39.168" fill="#672259"/><path id="path62" d="m799.53 160.93h15.301v-128.07c0-14.852 6.75-17.098 12.598-17.098 2.031 0 3.828 0.2227 3.828 0.2227v-13.727s-2.695-0.44922-5.625-0.44922c-9.453 0-26.102 2.918-26.102 27.684v131.44" fill="#672259"/></g></g></g></g></svg>
